Coordinates
version=1
nRows=14
nColumns=36
inDegrees=yes

Units are S.I. units (second, meters, Newtons, ...)
If the header above contains a line with 'inDegrees', this indicates whether rotational values are in degrees (yes) or radians (no).

endheader
time	pelvis_tilt	pelvis_list	pelvis_rotation	pelvis_tx	pelvis_ty	pelvis_tz	hip_flexion_r	hip_adduction_r	hip_rotation_r	knee_angle_r	knee_angle_r_beta	ankle_angle_r	subtalar_angle_r	mtp_angle_r	hip_flexion_l	hip_adduction_l	hip_rotation_l	knee_angle_l	knee_angle_l_beta	ankle_angle_l	subtalar_angle_l	mtp_angle_l	lumbar_extension	lumbar_bending	lumbar_rotation	arm_flex_r	arm_add_r	arm_rot_r	elbow_flex_r	pro_sup_r	arm_flex_l	arm_add_l	arm_rot_l	elbow_flex_l	pro_sup_l
      8.03333330	      8.00464355	     -0.66268294	     -2.79691841	     -0.12152528	      0.79042899	      0.26166996	     25.85302338	     10.03582035	     -0.06503888	     63.44102496	      1.10725477	     39.88546755	      3.04410447	     -7.49999987	     40.11551131	     -6.84751252	     -5.18421621	      4.12934146	      0.07207060	     -7.04034783	      6.37333695	     -7.49999987	    -19.07194431	      2.09666242	     -0.07035569	     40.69829002	      7.48970119	     67.70267901	    132.31609086	     90.63962048	     44.20968676	      7.99130686	     61.13975099	    130.63226569	     71.16283565
      8.05000000	      8.05623786	     -0.82116293	     -2.87280263	     -0.12197757	      0.78503433	      0.26253807	     26.77955930	     10.55260431	      0.07494652	     65.04274267	      1.13521001	     40.15405882	      2.45026735	     -7.49999987	     40.04343059	     -7.13625529	     -5.23737940	      3.82938328	      0.06683535	     -6.70188127	      6.23920560	     -7.49999987	    -19.49521870	      2.24832177	     -0.17336431	     40.62207984	      7.51872217	     67.43524286	    132.33725676	     89.50410158	     44.40420030	      7.97980935	     60.97229981	    130.80063236	     70.28777454
      8.06666670	      7.92187936	     -0.91804521	     -2.92372782	     -0.12377254	      0.77907416	      0.26305190	     27.70165502	     10.99814837	      0.23327539	     66.29669130	      1.15709555	     41.57280853	      1.64280152	     -7.49999987	     40.36605396	     -7.37653685	     -5.40585314	      3.66285268	      0.06392884	     -6.42431845	      5.97378478	     -7.49999987	    -19.79686553	      2.34634375	     -0.16173692	     40.60935860	      7.57617727	     67.01626753	    132.54697643	     93.25000926	     44.64049023	      7.91329308	     60.79232585	    131.16804441	     71.39303321
      8.08333330	      8.00373400	     -0.98405297	     -2.69281683	     -0.12220544	      0.77305379	      0.26319580	     28.51470343	     11.16436157	      0.13076166	     67.70666000	      1.18170414	     42.36804537	      1.28496200	     -7.49999987	     40.47176589	     -7.38187511	     -5.54625989	      3.58317098	      0.06253813	     -6.07529031	      5.74704883	     -7.49999987	    -20.20161061	      2.46105380	     -0.27025726	     41.14905750	      7.51409884	     66.51723260	    132.32842981	     93.24432622	     45.16782726	      8.17536704	     60.79339599	    131.21469520	     71.39553749
      8.10000000	      7.85247717	     -1.05104958	     -2.61722831	     -0.12346356	      0.76813841	      0.26289793	     29.53364655	     11.26789563	     -0.01428107	     69.11003315	      1.20619762	     42.71188202	      1.48058355	     -7.49999987	     40.75141498	     -7.41084382	     -5.53307489	      3.52004023	      0.06143629	     -5.81173060	      5.21134751	     -7.49999987	    -20.27952132	      2.58561123	     -0.30808625	     41.34820137	      7.61067340	     66.22396047	    132.16216280	     91.35518661	     45.40875236	      8.26638450	     61.00133727	    131.38646248	     70.48825613
      8.11666670	      8.02162135	     -1.23748685	     -2.65603500	     -0.12397518	      0.76447543	      0.26359349	     30.04066218	     11.54398519	     -0.29032339	     70.27754833	      1.22657461	     42.63680032	      1.65874598	     -7.49999987	     40.60418935	     -7.61977646	     -5.88293984	      3.33193363	      0.05815321	     -5.57602199	      5.52436425	     -7.49999987	    -20.78224819	      2.76619551	     -0.29468916	     41.79723917	      7.62544731	     66.04311465	    131.79058695	     90.91949136	     45.85661036	      8.29830543	     61.01791303	    131.49240229	     70.29169320
      8.13333330	      8.16476901	     -1.34960882	     -2.60528938	     -0.12275419	      0.76075760	      0.26451792	     30.36961941	     11.59890200	     -0.80964769	     71.33180546	      1.24497487	     42.18761361	      1.87810616	     -7.49999987	     40.37010252	     -7.73602861	     -5.96278459	      3.20123540	      0.05587210	     -5.49293001	      5.41800338	     -7.49999987	    -21.01822753	      2.91660354	     -0.29760045	     42.13509708	      7.51362817	     65.61044262	    131.58729835	     89.73160068	     46.27707919	      8.29165363	     60.83553298	    131.39974182	     69.73767179
      8.15000000	      8.27737566	     -1.30513827	     -2.71010505	     -0.12348905	      0.75652648	      0.26445684	     30.84171614	     11.44565073	     -1.09275405	     72.44077945	      1.26433011	     42.17020366	      1.83731128	     -7.49999987	     40.14156750	     -7.81482150	     -6.62360024	      3.04210771	      0.05309480	     -5.41676926	      5.83637103	     -7.49999987	    -21.44578567	      2.87058995	     -0.34926775	     42.33341305	      7.40579381	     65.13027677	    131.37970813	     91.53612114	     46.58617114	      8.18671132	     60.83854318	    131.58397204	     70.47484518
      8.16666670	      8.39585703	     -1.38789276	     -2.74789201	     -0.12307567	      0.75131170	      0.26416286	     31.35113228	     11.36540655	     -1.53193332	     73.63543102	      1.28518072	     42.18094367	      2.27448930	     -7.49999987	     40.04212766	     -7.85783772	     -6.71446829	      2.85511972	      0.04983124	     -5.69065143	      5.42851450	     -7.49999987	    -21.74201792	      2.93783208	     -0.49011543	     42.86122516	      7.34417170	     65.19846363	    131.37937401	     89.60380861	     47.07341212	      8.13334452	     60.79764140	    131.53140486	     69.60617719
      8.18333330	      8.32225425	     -1.42570376	     -2.84850490	     -0.12329640	      0.74691769	      0.26428477	     32.17772191	     11.30911799	     -1.88281051	     75.09435459	      1.31064374	     41.71662025	      2.39923381	     -7.49999987	     40.21556573	     -7.97260902	     -7.00979866	      2.75872950	      0.04814891	     -6.02081244	      5.12886762	     -7.49999987	    -21.92575392	      2.98241909	     -0.54949972	     43.29272135	      7.28026673	     65.05699045	    131.40876886	     88.61462612	     47.43587213	      8.11976212	     60.71425698	    131.56698985	     69.21678988
      8.20000000	      8.47120236	     -1.47394556	     -2.78884080	     -0.12302582	      0.74445437	      0.26430648	     32.52207571	     11.19510171	     -2.21606145	     76.14869322	      1.32904542	     41.49904366	      2.46699989	     -7.49999987	     40.02955139	     -7.95852622	     -7.37996822	      2.54655550	      0.04444578	     -6.33302704	      5.18753549	     -7.49999987	    -22.30196454	      3.10634081	     -0.53662195	     43.56229118	      7.13103722	     64.48724285	    131.43416454	     92.98864910	     47.86114501	      8.29674839	     60.76222449	    131.38886202	     71.26772937
      8.21666670	      8.37227300	     -1.54405709	     -2.88953465	     -0.12332804	      0.73803242	      0.26456136	     33.07889604	     11.21002974	     -2.51574919	     77.03798537	      1.34456649	     41.95924385	      2.16935422	     -7.49999987	     40.31819073	     -8.06059717	     -7.72384913	      2.47006936	      0.04311084	     -6.39794587	      5.17685731	     -7.49999987	    -22.48845556	      3.20378684	     -0.49096456	     43.70647020	      7.22910354	     64.77815576	    131.73962662	     91.47543718	     48.17092704	      8.44726061	     61.02716507	    131.39888574	     70.75423028
      8.23333330	      8.66715206	     -1.67492374	     -2.88153390	     -0.12265348	      0.73617234	      0.26466026	     33.36357290	     11.22358786	     -2.78937733	     78.16966080	      1.36431796	     41.86820088	      2.13862868	     -7.49999987	     40.03396943	     -8.16543527	     -8.04699736	      2.22207280	      0.03878249	     -6.92748948	      5.54282963	     -7.49999987	    -22.93953874	      3.31964441	     -0.49433070	     43.81229001	      7.04731747	     64.58060566	    131.84030049	     88.40810639	     48.45316861	      8.70666495	     61.27097782	    131.32056614	     69.63250277
      8.25000000	      8.72936714	     -1.68891861	     -2.89322971	     -0.12385416	      0.73320557	      0.26457742	     33.90368244	     11.11681052	     -3.08491447	     79.25339879	      1.38323275	     41.46748459	      2.59266610	     -7.49999987	     40.04593187	     -8.16908645	     -8.53586825	      2.07344364	      0.03618842	     -7.56862424	      5.57891584	     -7.49999987	    -23.25049883	      3.34446208	     -0.62471436	     43.71879830	      6.96100832	     64.61867779	    132.02089360	     86.18854780	     48.50735597	      8.85405336	     61.80999057	    131.44288406	     68.88227917
